<?xml version="1.0" encoding="UTF-8" standalone="no"?>
<!DOCTYPE svg PUBLIC "-//W3C//DTD SVG 1.1//EN"
 "http://www.w3.org/Graphics/SVG/1.1/DTD/svg11.dtd">
<!-- Generated by graphviz version 2.38.0 (20140413.2041)
 -->
<!-- Title: G Pages: 1 -->
<svg width="198pt" height="218pt"
 viewBox="0.00 0.00 197.69 218.00" xmlns="http://www.w3.org/2000/svg" xmlns:xlink="http://www.w3.org/1999/xlink">
<g id="graph0" class="graph" transform="scale(1 1) rotate(0) translate(4 214)">
<title>G</title>
<polygon fill="white" stroke="none" points="-4,4 -4,-214 193.691,-214 193.691,4 -4,4"/>
<!-- 1 -->
<g id="node1" class="node"><title>1</title>
<ellipse fill="none" stroke="black" cx="121.345" cy="-192" rx="51.1914" ry="18"/>
<text text-anchor="middle" x="121.345" y="-188.3" font-family="Times,serif" font-size="14.00">1(len=0)</text>
</g>
<!-- 2 -->
<g id="node2" class="node"><title>2</title>
<ellipse fill="none" stroke="black" cx="51.3454" cy="-105" rx="51.1914" ry="18"/>
<text text-anchor="middle" x="51.3454" y="-101.3" font-family="Times,serif" font-size="14.00">2(len=1)</text>
</g>
<!-- 1&#45;&gt;2 -->
<g id="edge1" class="edge"><title>1&#45;&gt;2</title>
<path fill="none" stroke="black" d="M101.07,-175.389C94.3658,-169.694 87.1447,-162.939 81.3454,-156 75.2135,-148.663 69.5226,-139.934 64.7819,-131.839"/>
<polygon fill="black" stroke="black" points="67.809,-130.081 59.8605,-123.076 61.7057,-133.509 67.809,-130.081"/>
<text text-anchor="middle" x="85.8454" y="-144.8" font-family="Times,serif" font-size="14.00">a</text>
</g>
<!-- 3 -->
<g id="node3" class="node"><title>3</title>
<ellipse fill="none" stroke="black" cx="138.345" cy="-18" rx="51.1914" ry="18"/>
<text text-anchor="middle" x="138.345" y="-14.3" font-family="Times,serif" font-size="14.00">3(len=2)</text>
</g>
<!-- 1&#45;&gt;3 -->
<g id="edge2" class="edge"><title>1&#45;&gt;3</title>
<path fill="none" stroke="black" d="M123.038,-173.879C125.991,-144.001 132.108,-82.1129 135.65,-46.2736"/>
<polygon fill="black" stroke="black" points="139.159,-46.3474 136.66,-36.0516 132.193,-45.6588 139.159,-46.3474"/>
<text text-anchor="middle" x="136.345" y="-101.3" font-family="Times,serif" font-size="14.00">b</text>
</g>
<!-- 2&#45;&gt;1 -->
<g id="edge3" class="edge"><title>2&#45;&gt;1</title>
<path fill="none" stroke="blue" stroke-dasharray="1,5" d="M71.0336,-121.729C77.564,-127.434 84.6209,-134.165 90.3454,-141 96.5395,-148.396 102.383,-157.141 107.291,-165.232"/>
<polygon fill="blue" stroke="blue" points="104.338,-167.115 112.404,-173.984 110.382,-163.584 104.338,-167.115"/>
</g>
<!-- 2&#45;&gt;3 -->
<g id="edge4" class="edge"><title>2&#45;&gt;3</title>
<path fill="none" stroke="black" d="M68.1199,-87.6111C81.2389,-74.7938 99.6527,-56.8033 114.333,-42.46"/>
<polygon fill="black" stroke="black" points="116.916,-44.8304 121.622,-35.3385 112.024,-39.8235 116.916,-44.8304"/>
<text text-anchor="middle" x="104.345" y="-57.8" font-family="Times,serif" font-size="14.00">b</text>
</g>
<!-- 3&#45;&gt;1 -->
<g id="edge5" class="edge"><title>3&#45;&gt;1</title>
<path fill="none" stroke="blue" stroke-dasharray="1,5" d="M143.612,-35.9233C145.135,-41.6088 146.589,-48.0245 147.345,-54 153.053,-99.113 153.97,-112.943 139.345,-156 138.345,-158.946 137.131,-161.951 135.811,-164.901"/>
<polygon fill="blue" stroke="blue" points="132.612,-163.476 131.365,-173.998 138.901,-166.55 132.612,-163.476"/>
</g>
</g>
</svg>
