<?xml version="1.0" encoding="UTF-8" standalone="no"?>
<!DOCTYPE svg PUBLIC "-//W3C//DTD SVG 1.1//EN"
 "http://www.w3.org/Graphics/SVG/1.1/DTD/svg11.dtd">
<!-- Generated by graphviz version 2.38.0 (20140413.2041)
 -->
<!-- Title: G Pages: 1 -->
<svg width="194pt" height="305pt"
 viewBox="0.00 0.00 193.69 305.00" xmlns="http://www.w3.org/2000/svg" xmlns:xlink="http://www.w3.org/1999/xlink">
<g id="graph0" class="graph" transform="scale(1 1) rotate(0) translate(4 301)">
<title>G</title>
<polygon fill="white" stroke="none" points="-4,4 -4,-301 189.691,-301 189.691,4 -4,4"/>
<!-- 1 -->
<g id="node1" class="node"><title>1</title>
<ellipse fill="none" stroke="black" cx="121.345" cy="-279" rx="51.1914" ry="18"/>
<text text-anchor="middle" x="121.345" y="-275.3" font-family="Times,serif" font-size="14.00">1(len=0)</text>
</g>
<!-- 2 -->
<g id="node2" class="node"><title>2</title>
<ellipse fill="none" stroke="black" cx="51.3454" cy="-192" rx="51.1914" ry="18"/>
<text text-anchor="middle" x="51.3454" y="-188.3" font-family="Times,serif" font-size="14.00">2(len=1)</text>
</g>
<!-- 1&#45;&gt;2 -->
<g id="edge1" class="edge"><title>1&#45;&gt;2</title>
<path fill="none" stroke="black" d="M101.07,-262.389C94.3658,-256.694 87.1447,-249.939 81.3454,-243 75.2135,-235.663 69.5226,-226.934 64.7819,-218.839"/>
<polygon fill="black" stroke="black" points="67.809,-217.081 59.8605,-210.076 61.7057,-220.509 67.809,-217.081"/>
<text text-anchor="middle" x="85.8454" y="-231.8" font-family="Times,serif" font-size="14.00">a</text>
</g>
<!-- 3 -->
<g id="node3" class="node"><title>3</title>
<ellipse fill="none" stroke="black" cx="134.345" cy="-105" rx="51.1914" ry="18"/>
<text text-anchor="middle" x="134.345" y="-101.3" font-family="Times,serif" font-size="14.00">3(len=2)</text>
</g>
<!-- 1&#45;&gt;3 -->
<g id="edge2" class="edge"><title>1&#45;&gt;3</title>
<path fill="none" stroke="black" d="M122.639,-260.879C124.898,-231.001 129.575,-169.113 132.284,-133.274"/>
<polygon fill="black" stroke="black" points="135.793,-133.287 133.057,-123.052 128.813,-132.759 135.793,-133.287"/>
<text text-anchor="middle" x="133.345" y="-188.3" font-family="Times,serif" font-size="14.00">b</text>
</g>
<!-- 2&#45;&gt;1 -->
<g id="edge3" class="edge"><title>2&#45;&gt;1</title>
<path fill="none" stroke="blue" stroke-dasharray="1,5" d="M71.0336,-208.729C77.564,-214.434 84.6209,-221.165 90.3454,-228 96.5395,-235.396 102.383,-244.141 107.291,-252.232"/>
<polygon fill="blue" stroke="blue" points="104.338,-254.115 112.404,-260.984 110.382,-250.584 104.338,-254.115"/>
</g>
<!-- 2&#45;&gt;3 -->
<g id="edge4" class="edge"><title>2&#45;&gt;3</title>
<path fill="none" stroke="black" d="M67.3487,-174.611C79.7496,-161.911 97.1097,-144.133 111.051,-129.856"/>
<polygon fill="black" stroke="black" points="113.909,-131.939 118.391,-122.339 108.901,-127.048 113.909,-131.939"/>
<text text-anchor="middle" x="102.345" y="-144.8" font-family="Times,serif" font-size="14.00">b</text>
</g>
<!-- 3&#45;&gt;1 -->
<g id="edge5" class="edge"><title>3&#45;&gt;1</title>
<path fill="none" stroke="blue" stroke-dasharray="1,5" d="M140.195,-122.885C141.887,-128.568 143.504,-134.992 144.345,-141 150.644,-185.973 151.174,-199.438 138.345,-243 137.477,-245.95 136.379,-248.959 135.162,-251.91"/>
<polygon fill="blue" stroke="blue" points="131.977,-250.46 130.998,-261.009 138.342,-253.373 131.977,-250.46"/>
</g>
<!-- 4 -->
<g id="node4" class="node"><title>4</title>
<ellipse fill="none" stroke="black" cx="81.3454" cy="-18" rx="51.1914" ry="18"/>
<text text-anchor="middle" x="81.3454" y="-14.3" font-family="Times,serif" font-size="14.00">4(len=3)</text>
</g>
<!-- 3&#45;&gt;4 -->
<g id="edge6" class="edge"><title>3&#45;&gt;4</title>
<path fill="none" stroke="black" d="M123.874,-87.2067C116.252,-74.9827 105.796,-58.2139 97.1597,-44.3624"/>
<polygon fill="black" stroke="black" points="100.056,-42.3921 91.7948,-35.7584 94.1159,-46.0959 100.056,-42.3921"/>
<text text-anchor="middle" x="114.845" y="-57.8" font-family="Times,serif" font-size="14.00">a</text>
</g>
<!-- 4&#45;&gt;2 -->
<g id="edge7" class="edge"><title>4&#45;&gt;2</title>
<path fill="none" stroke="blue" stroke-dasharray="1,5" d="M78.3713,-36.0516C73.1687,-65.8802 62.375,-127.764 56.117,-163.643"/>
<polygon fill="blue" stroke="blue" points="52.602,-163.426 54.3316,-173.879 59.4979,-164.629 52.602,-163.426"/>
</g>
</g>
</svg>
