<?xml version="1.0" encoding="UTF-8" standalone="no"?>
<!DOCTYPE svg PUBLIC "-//W3C//DTD SVG 1.1//EN"
 "http://www.w3.org/Graphics/SVG/1.1/DTD/svg11.dtd">
<!-- Generated by graphviz version 2.38.0 (20140413.2041)
 -->
<!-- Title: G Pages: 1 -->
<svg width="111pt" height="131pt"
 viewBox="0.00 0.00 110.69 131.00" xmlns="http://www.w3.org/2000/svg" xmlns:xlink="http://www.w3.org/1999/xlink">
<g id="graph0" class="graph" transform="scale(1 1) rotate(0) translate(4 127)">
<title>G</title>
<polygon fill="white" stroke="none" points="-4,4 -4,-127 106.691,-127 106.691,4 -4,4"/>
<!-- 1 -->
<g id="node1" class="node"><title>1</title>
<ellipse fill="none" stroke="black" cx="51.3454" cy="-105" rx="51.1914" ry="18"/>
<text text-anchor="middle" x="51.3454" y="-101.3" font-family="Times,serif" font-size="14.00">1(len=0)</text>
</g>
<!-- 2 -->
<g id="node2" class="node"><title>2</title>
<ellipse fill="none" stroke="black" cx="51.3454" cy="-18" rx="51.1914" ry="18"/>
<text text-anchor="middle" x="51.3454" y="-14.3" font-family="Times,serif" font-size="14.00">2(len=1)</text>
</g>
<!-- 1&#45;&gt;2 -->
<g id="edge1" class="edge"><title>1&#45;&gt;2</title>
<path fill="none" stroke="black" d="M44.4025,-86.9777C41.2851,-77.3549 38.6469,-65.0695 40.3454,-54 40.7569,-51.3184 41.336,-48.5603 42.0155,-45.8252"/>
<polygon fill="black" stroke="black" points="45.3834,-46.7776 44.7965,-36.1991 38.6584,-44.8347 45.3834,-46.7776"/>
<text text-anchor="middle" x="44.8454" y="-57.8" font-family="Times,serif" font-size="14.00">a</text>
</g>
<!-- 2&#45;&gt;1 -->
<g id="edge2" class="edge"><title>2&#45;&gt;1</title>
<path fill="none" stroke="blue" stroke-dasharray="1,5" d="M51.3454,-36.1754C51.3454,-47.806 51.3454,-63.4194 51.3454,-76.7339"/>
<polygon fill="blue" stroke="blue" points="47.8455,-76.7989 51.3454,-86.799 54.8455,-76.799 47.8455,-76.7989"/>
</g>
</g>
</svg>
