<svg xmlns="http://www.w3.org/2000/svg" xmlns:xlink="http://www.w3.org/1999/xlink" id="processonSvg1000" viewBox="111.01388549804688 131.03124237060547 376.4738507347856 348.0" width="376.4738507347856" height="348.0"><defs id="ProcessOnDefs1001"><marker id="ProcessOnMarker1021" markerUnits="userSpaceOnUse" orient="auto" markerWidth="16.23606797749979" markerHeight="10.550836550532098" viewBox="-1.0 -1.3763819204711736 16.23606797749979 10.550836550532098" refX="-1.0" refY="3.8990363547948754"><path id="ProcessOnPath1022" d="M12.0 3.8990363547948754L0.0 7.798072709589751V0.0Z" stroke="#323232" stroke-width="2.0" fill="#323232" transform="matrix(1.0,0.0,0.0,1.0,0.0,0.0)"/></marker><marker id="ProcessOnMarker1025" markerUnits="userSpaceOnUse" orient="auto" markerWidth="16.23606797749979" markerHeight="10.550836550532098" viewBox="-1.0 -1.3763819204711736 16.23606797749979 10.550836550532098" refX="-1.0" refY="3.8990363547948754"><path id="ProcessOnPath1026" d="M12.0 3.8990363547948754L0.0 7.798072709589751V0.0Z" stroke="#323232" stroke-width="2.0" fill="#323232" transform="matrix(1.0,0.0,0.0,1.0,0.0,0.0)"/></marker><marker id="ProcessOnMarker1029" markerUnits="userSpaceOnUse" orient="auto" markerWidth="16.23606797749979" markerHeight="10.550836550532098" viewBox="-1.0 -1.3763819204711736 16.23606797749979 10.550836550532098" refX="-1.0" refY="3.8990363547948754"><path id="ProcessOnPath1030" d="M12.0 3.8990363547948754L0.0 7.798072709589751V0.0Z" stroke="#323232" stroke-width="2.0" fill="#323232" transform="matrix(1.0,0.0,0.0,1.0,0.0,0.0)"/></marker><marker id="ProcessOnMarker1033" markerUnits="userSpaceOnUse" orient="auto" markerWidth="16.23606797749979" markerHeight="10.550836550532098" viewBox="-1.0 -1.3763819204711736 16.23606797749979 10.550836550532098" refX="-1.0" refY="3.8990363547948754"><path id="ProcessOnPath1034" d="M12.0 3.8990363547948754L0.0 7.798072709589751V0.0Z" stroke="#323232" stroke-width="2.0" fill="#323232" transform="matrix(1.0,0.0,0.0,1.0,0.0,0.0)"/></marker></defs><g id="ProcessOnG1002"><path id="ProcessOnPath1003" d="M111.01388549804688 131.03124237060547H487.48773623283245V479.03124237060547H111.01388549804688V131.03124237060547Z" fill="none"/><g id="ProcessOnG1004"><g id="ProcessOnG1005" transform="matrix(1.0,0.0,0.0,1.0,131.01388549804688,311.03124237060547)" opacity="1.0"><path id="ProcessOnPath1006" d="M94.5 0.0L189.0 148.0L0.0 148.0Z" stroke="#323232" stroke-width="2.0" stroke-dasharray="none" opacity="1.0" fill="#ffffff"/></g><g id="ProcessOnG1007" transform="matrix(0.9063077870366497,-0.4226182617407,0.4226182617407,0.9063077870366497,221.27609255891923,248.48961123515062)" opacity="1.0"><path id="ProcessOnPath1008" d="M112.7009755010873 0.0L225.4019510021746 148.4502649760574L0.0 148.4502649760574Z" stroke="#323232" stroke-width="2.0" stroke-dasharray="none" opacity="1.0" fill="#ffffff"/></g><g id="ProcessOnG1009" transform="matrix(1.0,0.0,0.0,1.0,295.0138854980469,151.03124237060547)" opacity="1.0"><path id="ProcessOnPath1010" d="M0.0 25.0C0.0 -8.333333333333334 50.0 -8.333333333333334 50.0 25.0C50.0 58.333333333333336 0.0 58.333333333333336 0.0 25.0Z" stroke="#323232" stroke-width="2.0" stroke-dasharray="none" opacity="1.0" fill="#ffffff"/></g><g id="ProcessOnG1011" transform="matrix(1.0,0.0,0.0,1.0,202.01388549804688,261.03124237060547)" opacity="1.0"><path id="ProcessOnPath1012" d="M0.0 25.0C0.0 -8.333333333333334 50.0 -8.333333333333334 50.0 25.0C50.0 58.333333333333336 0.0 58.333333333333336 0.0 25.0Z" stroke="#323232" stroke-width="2.0" stroke-dasharray="none" opacity="1.0" fill="#ffffff"/></g><g id="ProcessOnG1013" transform="matrix(1.0,0.0,0.0,1.0,202.01388549804688,381.03124237060547)" opacity="1.0"><path id="ProcessOnPath1014" d="M0.0 25.0C0.0 -8.333333333333334 50.0 -8.333333333333334 50.0 25.0C50.0 58.333333333333336 0.0 58.333333333333336 0.0 25.0Z" stroke="#323232" stroke-width="2.0" stroke-dasharray="none" opacity="1.0" fill="#ffffff"/></g><g id="ProcessOnG1015" transform="matrix(1.0,0.0,0.0,1.0,320.0138854980469,261.03124237060547)" opacity="1.0"><path id="ProcessOnPath1016" d="M0.0 25.0C0.0 -8.333333333333334 50.0 -8.333333333333334 50.0 25.0C50.0 58.333333333333336 0.0 58.333333333333336 0.0 25.0Z" stroke="#323232" stroke-width="2.0" stroke-dasharray="none" opacity="1.0" fill="#ffffff"/></g><g id="ProcessOnG1017" transform="matrix(1.0,0.0,0.0,1.0,382.0,261.03124237060547)" opacity="1.0"><path id="ProcessOnPath1018" d="M0.0 25.0C0.0 -8.333333333333334 50.0 -8.333333333333334 50.0 25.0C50.0 58.333333333333336 0.0 58.333333333333336 0.0 25.0Z" stroke="#323232" stroke-width="2.0" stroke-dasharray="none" opacity="1.0" fill="#ffffff"/></g><g id="ProcessOnG1019"><path id="ProcessOnPath1020" d="M320.0138854980469 201.03124237060547L239.8167023516567 252.7713605295669" stroke="#323232" stroke-width="2.0" stroke-dasharray="none" fill="none" marker-end="url(#ProcessOnMarker1021)"/></g><g id="ProcessOnG1023"><path id="ProcessOnPath1024" d="M320.0138854980469 201.03124237060547L339.1538593528546 246.96717962214413" stroke="#323232" stroke-width="2.0" stroke-dasharray="none" fill="none" marker-end="url(#ProcessOnMarker1025)"/></g><g id="ProcessOnG1027"><path id="ProcessOnPath1028" d="M320.0138854980469 201.03124237060547L394.45811936984444 252.38028880039585" stroke="#323232" stroke-width="2.0" stroke-dasharray="none" fill="none" marker-end="url(#ProcessOnMarker1029)"/></g><g id="ProcessOnG1031"><path id="ProcessOnPath1032" d="M227.01388549804688 311.03124237060547L227.01388549804688 365.7951743931057" stroke="#323232" stroke-width="2.0" stroke-dasharray="none" fill="none" marker-end="url(#ProcessOnMarker1033)"/></g></g></g></svg>